<svg width="200" height="90" viewBox="0 0 115 34" fill="none" xmlns="http://www.w3.org/2000/svg">
		<path fill-rule="evenodd" clip-rule="evenodd" d="M6.26532 0.725723V4.62759H5.71323L3.48004 2.41302C2.96517 1.89194 2.42548 1.46391 1.85478 1.46391C1.02354 1.46391 0.607922 2.07184 0.607922 2.70457C0.607922 3.30629 0.86846 3.79015 1.47638 4.0879L1.16622 4.60898C0.384604 4.21197 0.00620328 3.49239 0.00620328 2.71077C0.00620328 1.79889 0.651345 0.855992 1.85478 0.855992C2.6364 0.855992 3.29394 1.37086 3.92048 1.9974L5.6698 3.75913V0.725723H6.26532ZM0.601719 7.31982C0.601719 8.18827 1.17242 8.77138 2.03468 8.77138C2.89693 8.77138 3.46764 8.18827 3.46764 7.31982C3.46764 6.45136 2.89693 5.86825 2.03468 5.86825C1.17242 5.86825 0.601719 6.45136 0.601719 7.31982ZM2.03468 5.25412C0.83124 5.25412 0 6.12258 0 7.31982C0 8.51705 0.825037 9.38551 2.03468 9.38551C3.24432 9.38551 4.06936 8.51705 4.06936 7.31982C4.06936 7.15233 4.05075 6.98484 4.01973 6.82976L6.27152 8.34336V7.64859L3.26913 5.63252C2.93415 5.39059 2.51853 5.25412 2.03468 5.25412ZM4.59663 13.5045C5.39065 13.5045 5.77526 12.8966 5.77526 12.0591C5.77526 11.2279 5.39065 10.6138 4.59663 10.6138C3.80261 10.6138 3.41801 11.2217 3.41801 12.0591C3.41801 12.8966 3.80261 13.5045 4.59663 13.5045ZM0.601719 12.0591C0.601719 11.4264 0.911883 10.8185 1.71211 10.8185C2.4627 10.8185 2.82249 11.4264 2.82249 12.0591C2.82249 12.6919 2.4627 13.2998 1.71211 13.2998C0.90568 13.2998 0.601719 12.6919 0.601719 12.0591ZM1.7059 10.2043C2.33864 10.2043 2.81629 10.5455 3.08924 11.0232C3.37459 10.4153 3.90807 10.0058 4.59043 9.99343C5.75044 9.99343 6.36457 10.9363 6.36457 12.0529C6.36457 13.1695 5.75044 14.1124 4.59043 14.1124C3.90807 14.1124 3.36838 13.703 3.08924 13.0951C2.81629 13.5727 2.33864 13.9139 1.7059 13.9139C0.539686 13.9139 0 12.971 0 12.0591C0 11.1472 0.533482 10.2043 1.7059 10.2043ZM0.105456 15.7005L0.669955 17.3257L1.19723 17.1644L0.781614 15.7811H6.25911V15.167H0.105456V15.7005ZM0.105456 24.2362V19.838H0.688565V21.73H6.26532V22.3442H0.688565V24.2362H0.105456ZM6.37077 26.6182C6.37077 25.3838 5.70082 24.5401 4.64626 24.5401C3.52291 24.5401 3.1987 25.5135 2.83392 26.6088L2.81629 26.6617C2.54335 27.4991 2.33244 28.0264 1.66248 28.0264C0.986322 28.0264 0.595515 27.4867 0.595515 26.7485C0.595515 25.9421 1.06076 25.4644 1.61906 25.2349L1.3275 24.7138C0.595515 25.0302 0 25.7312 0 26.7485C0 27.7658 0.607922 28.6405 1.68729 28.6405C2.76634 28.6405 3.05512 27.7662 3.36873 26.8166L3.41801 26.6679C3.71577 25.7622 3.94529 25.1543 4.65867 25.1543C5.31622 25.1543 5.76905 25.6753 5.76905 26.6058C5.76905 27.5735 5.2914 28.1566 4.55321 28.3738L4.86338 28.901C5.80007 28.5909 6.37077 27.7534 6.37077 26.6182ZM3.45523 32.6044H5.68221V29.6144H6.26532V33.2185H0.105456V29.6578H0.688565V32.6044H2.87212V29.875H3.45523V32.6044Z" fill="black"></path>
		<path d="M19.59 27.0586V0.651215H13.1758V33.1936H32.0028V27.0586H19.59Z" fill="black"></path>
		<path d="M46.1336 33.845C53.0627 33.845 57.9385 30.1294 57.9385 24.0377C57.9385 17.3878 52.4548 15.6695 47.2936 14.0442C42.3682 12.5554 41.1089 11.4885 41.1089 9.49103C41.1089 7.63004 42.6908 6.2343 45.383 6.2343C48.6832 6.2343 50.4511 7.95261 51.6111 10.4153L57.0018 7.30127C54.8182 2.74805 50.724 0 45.383 0C39.8063 0 34.6885 3.53587 34.6885 9.67092C34.6885 15.8556 39.5209 17.9461 44.4959 19.3853C49.3283 20.781 51.5181 21.7115 51.5181 24.1246C51.5181 25.9359 50.1719 27.5674 46.3135 27.5674C42.269 27.5674 39.9924 25.6134 38.8323 22.5924L33.3486 25.7995C35.1166 30.638 39.4837 33.845 46.1336 33.845Z" fill="black"></path>
		<path fill-rule="evenodd" clip-rule="evenodd" d="M81.5547 16.3206C83.4591 14.7884 84.6253 12.6048 84.6253 9.81335C84.6253 4.37307 80.2086 0.657303 74.7249 0.657303H61.8965V33.1935H75.705C81.3314 33.1935 85.8412 29.3351 85.8412 23.7583C85.8288 20.3651 84.1601 17.8032 81.5547 16.3206ZM75.6988 27.195H68.3045V19.5277H75.6988C77.8823 19.5277 79.4642 21.153 79.4642 23.3365C79.4642 25.5697 77.8823 27.195 75.6988 27.195ZM78.2049 10.229C78.2049 8.18189 76.7658 6.64968 74.7187 6.64968H68.3045V13.8083H74.7187C76.7161 13.8083 78.2049 12.2761 78.2049 10.229Z" fill="black"></path>
		<path d="M101.914 33.845C109.072 33.845 114.37 29.5709 114.37 22.5488V0.651215H107.956V22.0339C107.956 25.1976 106.281 27.5673 101.914 27.5673C97.5466 27.5673 95.8717 25.1976 95.8717 22.0339V0.651215H89.501V22.5426C89.501 29.5647 94.8048 33.845 101.914 33.845Z" fill="black"></path>
	</svg>