<?xml version="1.0" standalone="no"?>
<!DOCTYPE svg PUBLIC "-//W3C//DTD SVG 20010904//EN"
 "http://www.w3.org/TR/2001/REC-SVG-20010904/DTD/svg10.dtd">
<svg version="1.0" xmlns="http://www.w3.org/2000/svg"
 width="750.000000pt" height="269.000000pt" viewBox="0 0 750.000000 269.000000"
 preserveAspectRatio="xMidYMid meet">

<g transform="translate(0.000000,269.000000) scale(0.100000,-0.100000)"
fill="#000000" stroke="none">
<path d="M2840 2331 c-179 -49 -316 -153 -388 -297 -71 -142 -69 -360 5 -496
15 -27 57 -78 95 -113 88 -84 200 -138 423 -206 273 -83 358 -130 390 -214 40
-104 -19 -205 -139 -240 -46 -13 -86 -16 -177 -13 -111 4 -121 6 -192 41 -85
42 -152 108 -189 187 -13 27 -27 49 -31 50 -9 0 -268 -149 -302 -174 -19 -14
-19 -16 20 -91 95 -188 279 -322 508 -369 97 -20 302 -21 395 -1 316 66 496
267 496 555 0 222 -100 371 -320 475 -40 19 -160 63 -267 99 -324 107 -387
151 -387 268 0 69 17 107 62 141 50 37 105 51 193 50 142 -1 238 -55 311 -174
20 -32 41 -59 45 -59 5 0 76 39 159 87 115 66 149 90 145 102 -20 53 -81 137
-152 208 -93 93 -194 149 -327 183 -103 26 -282 27 -376 1z"/>
<path d="M1145 2308 c-3 -7 -4 -436 -3 -953 l3 -940 548 -3 547 -2 0 185 0
185 -360 0 -360 0 -2 768 -3 767 -183 3 c-140 2 -184 0 -187 -10z"/>
<path d="M3985 2308 c-3 -7 -4 -436 -3 -953 l3 -940 455 0 c449 0 456 0 530
23 262 82 410 272 410 527 0 165 -61 298 -181 391 l-59 47 49 52 c85 90 121
187 121 328 0 99 -29 204 -77 280 -65 103 -192 192 -333 234 -75 22 -907 33
-915 11z m843 -369 c29 -15 54 -37 74 -68 27 -42 29 -52 26 -122 -3 -86 -25
-128 -86 -170 -35 -23 -42 -24 -259 -27 l-223 -3 0 205 0 206 212 0 c196 0
215 -2 256 -21z m84 -764 c114 -80 127 -258 26 -352 -52 -48 -81 -53 -338 -53
l-240 0 0 220 0 221 254 -3 254 -3 44 -30z"/>
<path d="M5594 2306 c-3 -7 -3 -321 -2 -697 4 -759 1 -725 73 -878 51 -107
160 -214 275 -269 137 -66 191 -76 380 -77 185 0 243 11 368 70 95 45 173 106
229 180 56 75 75 111 104 205 l24 75 0 700 0 700 -185 0 -185 0 -5 -675 c-5
-658 -6 -676 -26 -720 -31 -67 -68 -106 -132 -137 -53 -26 -65 -28 -187 -28
-103 0 -139 4 -174 18 -69 28 -117 72 -148 135 l-28 57 -3 678 -3 677 -185 0
c-146 0 -186 -3 -190 -14z"/>
<path d="M700 2228 l0 -82 -57 55 c-89 86 -110 99 -159 99 -106 0 -150 -124
-70 -199 21 -19 24 -20 36 -6 11 13 10 19 -8 36 -30 27 -38 67 -21 98 12 21
24 27 58 29 41 3 45 1 135 -87 51 -50 100 -91 109 -91 15 0 17 14 17 115 0
108 -1 115 -20 115 -18 0 -20 -7 -20 -82z"/>
<path d="M440 2033 c-97 -50 -85 -193 19 -224 75 -22 151 30 151 104 0 15 3
27 8 27 4 0 31 -16 59 -35 61 -41 63 -41 63 -15 0 26 -182 148 -231 156 -22 3
-46 -1 -69 -13z m104 -44 c21 -16 26 -29 26 -64 0 -35 -5 -48 -26 -64 -43 -34
-102 -21 -123 26 -38 83 51 158 123 102z"/>
<path d="M584 1746 l-28 -23 -34 20 c-70 41 -147 -11 -147 -100 0 -38 5 -49
33 -74 39 -35 87 -38 124 -9 l25 19 23 -24 c54 -57 150 -18 165 67 20 109 -85
190 -161 124z m92 -24 c34 -22 44 -93 18 -130 -18 -27 -69 -30 -96 -5 -23 20
-24 90 -2 121 15 22 57 30 80 14z m-156 -29 c39 -49 10 -113 -51 -113 -53 0
-79 80 -39 120 28 28 64 25 90 -7z"/>
<path d="M380 1452 c0 -29 31 -112 41 -112 17 0 21 29 11 60 l-11 30 160 0
c152 0 159 1 159 20 0 19 -7 20 -180 20 -167 0 -180 -1 -180 -18z"/>
<path d="M380 1071 c0 -124 1 -131 20 -131 18 0 20 7 20 55 l0 55 160 0 c153
0 160 1 160 20 0 19 -7 20 -159 20 l-160 0 -3 52 c-2 41 -7 54 -20 56 -16 3
-18 -8 -18 -127z"/>
<path d="M586 897 c-13 -13 -31 -48 -41 -78 -9 -30 -24 -64 -31 -76 -30 -47
-104 -13 -104 47 0 18 11 42 29 63 20 22 27 38 21 47 -13 20 -58 -13 -76 -57
-32 -76 16 -163 90 -163 42 0 69 29 101 109 31 79 41 91 76 91 36 0 59 -32 59
-83 0 -31 -7 -46 -35 -74 -26 -26 -33 -39 -25 -47 8 -8 18 -6 38 4 69 39 81
159 22 213 -39 35 -91 37 -124 4z"/>
<path d="M707 623 c-4 -3 -7 -44 -7 -90 l0 -83 -60 0 -60 0 0 80 c0 73 -2 80
-20 80 -18 0 -20 -7 -20 -80 l0 -80 -60 0 -60 0 0 85 c0 78 -2 85 -20 85 -19
0 -20 -7 -20 -105 l0 -105 180 0 180 0 0 110 c0 85 -3 110 -13 110 -8 0 -17
-3 -20 -7z"/>
</g>
</svg>
