<svg xmlns="http://www.w3.org/2000/svg" viewBox="0 0 512 512" width="512" height="512">
  <!-- Background circle -->
  <circle cx="256" cy="256" r="240" fill="#1a1a1a" stroke="#ffcc00" stroke-width="8"/>
  
  <!-- Skull base -->
  <ellipse cx="256" cy="220" rx="80" ry="85" fill="#f8f8f8"/>
  
  <!-- Eye sockets -->
  <circle cx="230" cy="200" r="18" fill="#1a1a1a"/>
  <circle cx="282" cy="200" r="18" fill="#1a1a1a"/>
  
  <!-- Nose -->
  <path d="M 256 215 L 250 235 L 262 235 Z" fill="#1a1a1a"/>
  
  <!-- Mouth/teeth -->
  <rect x="240" y="245" width="8" height="20" fill="#1a1a1a"/>
  <rect x="250" y="245" width="8" height="25" fill="#1a1a1a"/>
  <rect x="260" y="245" width="8" height="20" fill="#1a1a1a"/>
  
  <!-- Straw Hat -->
  <ellipse cx="256" cy="140" rx="90" ry="25" fill="#f4d03f"/>
  <ellipse cx="256" cy="135" rx="85" ry="20" fill="#f1c40f"/>
  
  <!-- Hat band -->
  <rect x="171" y="130" width="170" height="12" fill="#e74c3c"/>
  
  <!-- Hat details -->
  <circle cx="200" cy="136" r="3" fill="#c0392b"/>
  <circle cx="220" cy="136" r="3" fill="#c0392b"/>
  <circle cx="240" cy="136" r="3" fill="#c0392b"/>
  <circle cx="272" cy="136" r="3" fill="#c0392b"/>
  <circle cx="292" cy="136" r="3" fill="#c0392b"/>
  <circle cx="312" cy="136" r="3" fill="#c0392b"/>
  
  <!-- Crossbones -->
  <g transform="rotate(-45 180 350)">
    <rect x="175" y="340" width="50" height="8" fill="#f8f8f8"/>
    <circle cx="170" cy="344" r="8" fill="#f8f8f8"/>
    <circle cx="230" cy="344" r="8" fill="#f8f8f8"/>
  </g>
  
  <g transform="rotate(45 332 350)">
    <rect x="307" y="340" width="50" height="8" fill="#f8f8f8"/>
    <circle cx="302" cy="344" r="8" fill="#f8f8f8"/>
    <circle cx="362" cy="344" r="8" fill="#f8f8f8"/>
  </g>
  
  <!-- Signature scar under left eye -->
  <rect x="225" y="210" width="12" height="2" fill="#e74c3c"/>
  <rect x="223" y="214" width="16" height="2" fill="#e74c3c"/>
  <rect x="221" y="218" width="20" height="2" fill="#e74c3c"/>
</svg>
